<?xml version="1.0" encoding="UTF-8"?>
<svg width="400" height="400" viewBox="0 0 400 400" xmlns="http://www.w3.org/2000/svg">
    <!-- Background Circle -->
    <circle cx="200" cy="200" r="180" fill="none" stroke="#e5e7eb" stroke-width="2"/>
    
    <!-- Network Nodes -->
    <g id="nodes">
        <!-- Center Node -->
        <circle cx="200" cy="200" r="15" fill="#2563eb"/>
        
        <!-- Outer Nodes -->
        <circle cx="200" cy="50" r="10" fill="#2563eb"/>
        <circle cx="350" cy="200" r="10" fill="#2563eb"/>
        <circle cx="200" cy="350" r="10" fill="#2563eb"/>
        <circle cx="50" cy="200" r="10" fill="#2563eb"/>
        
        <!-- Diagonal Nodes -->
        <circle cx="300" cy="100" r="10" fill="#2563eb"/>
        <circle cx="300" cy="300" r="10" fill="#2563eb"/>
        <circle cx="100" cy="300" r="10" fill="#2563eb"/>
        <circle cx="100" cy="100" r="10" fill="#2563eb"/>
    </g>
    
    <!-- Network Connections -->
    <g id="connections" stroke="#2563eb" stroke-width="2" fill="none">
        <!-- Center to Outer -->
        <line x1="200" y1="200" x2="200" y2="50"/>
        <line x1="200" y1="200" x2="350" y2="200"/>
        <line x1="200" y1="200" x2="200" y2="350"/>
        <line x1="200" y1="200" x2="50" y2="200"/>
        
        <!-- Center to Diagonal -->
        <line x1="200" y1="200" x2="300" y2="100"/>
        <line x1="200" y1="200" x2="300" y2="300"/>
        <line x1="200" y1="200" x2="100" y2="300"/>
        <line x1="200" y1="200" x2="100" y2="100"/>
        
        <!-- Outer to Diagonal -->
        <line x1="200" y1="50" x2="300" y2="100"/>
        <line x1="200" y1="50" x2="100" y2="100"/>
        <line x1="350" y1="200" x2="300" y2="100"/>
        <line x1="350" y1="200" x2="300" y2="300"/>
        <line x1="200" y1="350" x2="300" y2="300"/>
        <line x1="200" y1="350" x2="100" y2="300"/>
        <line x1="50" y1="200" x2="100" y2="100"/>
        <line x1="50" y1="200" x2="100" y2="300"/>
    </g>
    
    <!-- Animation -->
    <style>
        @keyframes pulse {
            0% { transform: scale(1); opacity: 1; }
            50% { transform: scale(1.2); opacity: 0.7; }
            100% { transform: scale(1); opacity: 1; }
        }
        
        #nodes circle {
            animation: pulse 2s infinite;
        }
        
        #nodes circle:nth-child(1) { animation-delay: 0s; }
        #nodes circle:nth-child(2) { animation-delay: 0.2s; }
        #nodes circle:nth-child(3) { animation-delay: 0.4s; }
        #nodes circle:nth-child(4) { animation-delay: 0.6s; }
        #nodes circle:nth-child(5) { animation-delay: 0.8s; }
        #nodes circle:nth-child(6) { animation-delay: 1s; }
        #nodes circle:nth-child(7) { animation-delay: 1.2s; }
        #nodes circle:nth-child(8) { animation-delay: 1.4s; }
        #nodes circle:nth-child(9) { animation-delay: 1.6s; }
        
        #connections line {
            stroke-dasharray: 5,5;
            animation: dash 20s linear infinite;
        }
        
        @keyframes dash {
            to { stroke-dashoffset: 1000; }
        }
    </style>
</svg> 